#tb 0: 1/12
#tb 1: 1/22050
0,          0,          0,        1,   823680, 0xddb8a306
1,          0,          0,     1856,     7424, 0x18540b36
0,          1,          1,        1,   823680, 0xa95375c8
1,       1856,       1856,     1824,     7296, 0x5acd2484
0,          2,          2,        1,   823680, 0xa95375c8
1,       3680,       3680,     1856,     7424, 0xa1bc5c5a
0,          3,          3,        1,   823680, 0xb6f78afe
1,       5536,       5536,     1824,     7296, 0x71a02ad1
0,          4,          4,        1,   823680, 0xb6f78afe
1,       7360,       7360,     1856,     7424, 0x09cc32f2
0,          5,          5,        1,   823680, 0x45b9c8f0
1,       9216,       9216,     1824,     7296, 0xa3451726
0,          6,          6,        1,   823680, 0x45b9c8f0
1,      11040,      11040,     1824,     7296, 0x1eb40a18
0,          7,          7,        1,   823680, 0x7653d8e9
1,      12864,      12864,     1856,     7424, 0xc55a2acf
0,          8,          8,        1,   823680, 0x7653d8e9
1,      14720,      14720,     1824,     7296, 0x5b9fad3f
0,          9,          9,        1,   823680, 0xf1e2fd73
1,      16544,      16544,     1856,     7424, 0xea651ae7
0,         10,         10,        1,   823680, 0xf1e2fd73
1,      18400,      18400,     1824,     7296, 0x2bd5ddb6
0,         11,         11,        1,   823680, 0x6d2deab3
1,      20224,      20224,     1856,     7424, 0xde4243b4
0,         12,         12,        1,   823680, 0x6d2deab3
1,      22080,      22080,     1824,     7296, 0x358806d3
0,         13,         13,        1,   823680, 0x37fd33ce
1,      23904,      23904,     1824,     7296, 0x511a144e
0,         14,         14,        1,   823680, 0x37fd33ce
1,      25728,      25728,     1856,     7424, 0x887a3e84
0,         15,         15,        1,   823680, 0x0a8e0ab9
1,      27584,      27584,     1824,     7296, 0xfeae2a0c
0,         16,         16,        1,   823680, 0x0a8e0ab9
1,      29408,      29408,     1856,     7424, 0xa4ea5d22
0,         17,         17,        1,   823680, 0x991bb2b0
1,      31264,      31264,     1824,     7296, 0xb3adf7fa
0,         18,         18,        1,   823680, 0x991bb2b0
1,      33088,      33088,     1856,     7424, 0xce995dcc
0,         19,         19,        1,   823680, 0xb8397c8c
1,      34944,      34944,     1824,     7296, 0x5b4cf574
0,         20,         20,        1,   823680, 0xb8397c8c
1,      36768,      36768,     1824,     7296, 0x8a70eaf0
